<svg width="138" height="28" viewBox="0 0 138 28" fill="none" xmlns="http://www.w3.org/2000/svg">
<path d="M9.66213 25.3511L17.6752 15.2309C17.8049 15.067 17.6882 14.8257 17.4792 14.8257H0.90673C0.693917 14.8257 0.578419 15.0746 0.715848 15.2371L9.27524 25.3574C9.37723 25.478 9.56409 25.475 9.66213 25.3511Z" fill="#FF0000" stroke="black"/>
<path d="M17.5751 14.3586L9.44806 10.4871C9.30657 10.4196 9.14165 10.4225 9.00256 10.4947L1.00001 14.6512C0.651271 14.8323 0.638177 15.3264 0.976834 15.5258L8.96465 20.2277C9.1239 20.3215 9.32187 20.3197 9.47945 20.2232L17.6212 15.2364C17.9595 15.0292 17.9333 14.5293 17.5751 14.3586Z" fill="white" stroke="black"/>
<path d="M9.66213 15.9712L17.6752 5.85099C17.8049 5.6871 17.6882 5.4458 17.4792 5.4458H0.90673C0.693917 5.4458 0.578419 5.69475 0.715848 5.85724L9.27524 15.9775C9.37723 16.0981 9.56409 16.095 9.66213 15.9712Z" fill="#001AFF" stroke="black"/>
<path d="M17.5751 4.97879L9.44806 1.1072C9.30657 1.03979 9.14165 1.04263 9.00256 1.11487L1.00001 5.2713C0.651271 5.45243 0.638177 5.94657 0.976834 6.14591L8.96465 10.8479C9.1239 10.9416 9.32187 10.9399 9.47945 10.8434L17.6212 5.85656C17.9595 5.64932 17.9333 5.14943 17.5751 4.97879Z" fill="white" stroke="black"/>
<path d="M32.0927 16.108L35.7611 23.7429H38.2623L38.2752 23.5887L34.3117 15.5938C34.8248 15.371 35.2951 15.1011 35.7227 14.7841C36.1502 14.467 36.5179 14.1028 36.8257 13.6915C37.1336 13.2802 37.373 12.8218 37.544 12.3162C37.7236 11.8106 37.8134 11.2536 37.8134 10.6452C37.8134 9.70266 37.6467 8.88432 37.3132 8.19023C36.9882 7.48757 36.5393 6.90488 35.9664 6.44216C35.3849 5.97943 34.7093 5.63239 33.9397 5.40103C33.1701 5.16967 32.3492 5.04542 31.477 5.02828H26V23.7429H28.3601V16.108H32.0927ZM28.3601 14.1542V6.98201H31.477C32.0499 6.99057 32.5758 7.07198 33.0547 7.22622C33.5421 7.38046 33.9611 7.60754 34.3117 7.90745C34.6623 8.21594 34.9359 8.59726 35.1326 9.05141C35.3293 9.497 35.4276 10.0197 35.4276 10.6195C35.4276 11.1851 35.325 11.6864 35.1198 12.1234C34.9146 12.5518 34.6367 12.916 34.2861 13.2159C33.9269 13.5159 33.5122 13.7472 33.0419 13.91C32.5716 14.0643 32.0713 14.1457 31.5411 14.1542H28.3601Z" fill="black"/>
<path d="M50.8325 23.7429H52.9874V9.83548H50.6016V19.8098C50.4734 20.1097 50.3109 20.3882 50.1142 20.6452C49.9261 20.8937 49.7038 21.108 49.4472 21.2879C49.1394 21.5107 48.776 21.6864 48.357 21.8149C47.938 21.9349 47.4634 21.9949 46.9332 21.9949C46.48 21.9949 46.0781 21.9349 45.7275 21.8149C45.3854 21.6949 45.0947 21.485 44.8553 21.1851C44.6158 20.8937 44.4363 20.4996 44.3166 20.0026C44.1968 19.5056 44.137 18.88 44.137 18.126V9.83548H41.764V18.1003C41.764 19.1371 41.8752 20.0283 42.0975 20.7738C42.3284 21.5107 42.6534 22.1191 43.0724 22.599C43.4914 23.0788 43.9959 23.4344 44.5859 23.6658C45.1759 23.8886 45.8344 24 46.5612 24C47.4677 24 48.2672 23.8115 48.9598 23.4344C49.6525 23.0488 50.2297 22.5133 50.6914 21.8278L50.8325 23.7429Z" fill="black"/>
<path d="M69.5595 18.1131H67.1866C67.1096 18.6787 66.9771 19.2057 66.789 19.6941C66.6008 20.174 66.3486 20.5895 66.0322 20.9409C65.7158 21.3008 65.3267 21.5793 64.865 21.7763C64.4117 21.9734 63.873 22.072 63.2488 22.072C62.6759 22.072 62.1756 21.982 61.7481 21.8021C61.3205 21.6135 60.9485 21.3565 60.6321 21.0308C60.3157 20.7138 60.0549 20.3453 59.8497 19.9254C59.6445 19.5056 59.4777 19.0557 59.3495 18.5758C59.2212 18.1045 59.1271 17.6247 59.0673 17.1362C59.016 16.6392 58.9903 16.1594 58.9903 15.6967V13.0617C58.9903 12.599 59.016 12.1234 59.0673 11.635C59.1271 11.138 59.2212 10.6538 59.3495 10.1825C59.4777 9.71123 59.6445 9.26564 59.8497 8.84576C60.0635 8.42588 60.3286 8.05741 60.645 7.74036C60.9528 7.42331 61.3205 7.17481 61.7481 6.99486C62.1842 6.80634 62.6844 6.71208 63.2488 6.71208C63.873 6.71208 64.4117 6.81919 64.865 7.03342C65.3267 7.23907 65.7158 7.52614 66.0322 7.8946C66.3486 8.26307 66.6008 8.69152 66.789 9.17995C66.9771 9.66838 67.1096 10.1954 67.1866 10.7609H69.5595C69.4569 9.86975 69.2431 9.0557 68.9182 8.31877C68.6018 7.58183 68.1785 6.94773 67.6484 6.41645C67.1182 5.89374 66.4854 5.491 65.75 5.20823C65.0146 4.91688 64.1809 4.77121 63.2488 4.77121C62.4706 4.77121 61.7694 4.8826 61.1452 5.1054C60.521 5.31962 59.9651 5.61954 59.4777 6.00514C58.9818 6.39075 58.5542 6.84919 58.1951 7.38046C57.8445 7.90317 57.5537 8.47301 57.3228 9.08997C57.0834 9.70694 56.9038 10.3539 56.7841 11.0308C56.673 11.7078 56.6131 12.3933 56.6045 13.0874V15.6967C56.6131 16.3907 56.673 17.0763 56.7841 17.7532C56.9038 18.4302 57.0834 19.0771 57.3228 19.6941C57.5537 20.3111 57.8445 20.8809 58.1951 21.4036C58.5542 21.9263 58.9818 22.3805 59.4777 22.7661C59.9651 23.1517 60.521 23.4559 61.1452 23.6787C61.778 23.8929 62.4792 24 63.2488 24C64.1467 24 64.959 23.8586 65.6859 23.5758C66.4213 23.2845 67.0583 22.8775 67.597 22.3548C68.1272 21.8406 68.5591 21.2237 68.8925 20.5039C69.226 19.7755 69.4484 18.9786 69.5595 18.1131Z" fill="black"/>
<path d="M73.6128 4V6.06941H78.333V21.6864H73.6128V23.7429H85.2338V21.6864H80.706V4H73.6128Z" fill="black"/>
<path d="M88.3507 16.6607V16.9434C88.3507 17.946 88.496 18.8757 88.7868 19.7326C89.0775 20.5895 89.4965 21.335 90.0438 21.9692C90.5825 22.6033 91.241 23.1003 92.0191 23.4602C92.8058 23.8201 93.6909 24 94.6742 24C95.6491 24 96.5256 23.8201 97.3037 23.4602C98.0819 23.1003 98.7446 22.6033 99.2919 21.9692C99.8306 21.335 100.245 20.5895 100.536 19.7326C100.827 18.8757 100.972 17.946 100.972 16.9434V16.6607C100.972 15.6581 100.827 14.7284 100.536 13.8715C100.245 13.006 99.8306 12.2562 99.2919 11.6221C98.7446 10.988 98.0776 10.491 97.2909 10.1311C96.5127 9.76264 95.632 9.57841 94.6486 9.57841C93.6738 9.57841 92.7973 9.76264 92.0191 10.1311C91.241 10.491 90.5825 10.988 90.0438 11.6221C89.4965 12.2562 89.0775 13.006 88.7868 13.8715C88.496 14.7284 88.3507 15.6581 88.3507 16.6607ZM90.7236 16.9434V16.6607C90.7236 15.9837 90.8049 15.3368 90.9673 14.7198C91.1298 14.0943 91.3778 13.5458 91.7113 13.0746C92.0362 12.6033 92.4424 12.2305 92.9298 11.9563C93.4172 11.6735 93.9902 11.5321 94.6486 11.5321C95.307 11.5321 95.88 11.6735 96.3674 11.9563C96.8633 12.2305 97.2781 12.6033 97.6116 13.0746C97.9365 13.5458 98.1802 14.0943 98.3427 14.7198C98.5137 15.3368 98.5992 15.9837 98.5992 16.6607V16.9434C98.5992 17.629 98.518 18.2845 98.3555 18.91C98.193 19.527 97.9493 20.0711 97.6244 20.5424C97.2909 21.0137 96.8762 21.3865 96.3802 21.6607C95.8928 21.9349 95.3241 22.072 94.6742 22.072C94.0158 22.072 93.4386 21.9349 92.9426 21.6607C92.4467 21.3865 92.0362 21.0137 91.7113 20.5424C91.3778 20.0711 91.1298 19.527 90.9673 18.91C90.8049 18.2845 90.7236 17.629 90.7236 16.9434Z" fill="black"/>
<path d="M113.94 23.7429H116.095V9.83548H113.709V19.8098C113.581 20.1097 113.418 20.3882 113.222 20.6452C113.034 20.8937 112.811 21.108 112.555 21.2879C112.247 21.5107 111.883 21.6864 111.464 21.8149C111.045 21.9349 110.571 21.9949 110.041 21.9949C109.587 21.9949 109.186 21.9349 108.835 21.8149C108.493 21.6949 108.202 21.485 107.963 21.1851C107.723 20.8937 107.544 20.4996 107.424 20.0026C107.304 19.5056 107.244 18.88 107.244 18.126V9.83548H104.871V18.1003C104.871 19.1371 104.983 20.0283 105.205 20.7738C105.436 21.5107 105.761 22.1191 106.18 22.599C106.599 23.0788 107.103 23.4344 107.693 23.6658C108.283 23.8886 108.942 24 109.669 24C110.575 24 111.375 23.8115 112.067 23.4344C112.76 23.0488 113.337 22.5133 113.799 21.8278L113.94 23.7429Z" fill="black"/>
<path d="M126.189 6.46787H123.804V9.83548H120.161V11.6735H123.804V19.2314C123.804 20.0883 123.915 20.8209 124.137 21.4293C124.368 22.0291 124.68 22.5176 125.074 22.8946C125.467 23.2802 125.929 23.563 126.459 23.7429C126.998 23.9143 127.575 24 128.19 24C128.558 24 128.926 23.9829 129.294 23.9486C129.67 23.9143 130.025 23.8629 130.358 23.7943C130.692 23.7344 131 23.6615 131.282 23.5758C131.564 23.4816 131.803 23.3745 132 23.2545L131.667 21.5707C131.521 21.605 131.333 21.6478 131.102 21.6992C130.88 21.7421 130.64 21.7849 130.384 21.8278C130.119 21.8706 129.849 21.9092 129.576 21.9434C129.302 21.9692 129.037 21.982 128.78 21.982C128.43 21.982 128.096 21.9392 127.78 21.8535C127.472 21.7678 127.199 21.6178 126.959 21.4036C126.72 21.1979 126.532 20.9195 126.395 20.5681C126.258 20.2168 126.189 19.7712 126.189 19.2314V11.6735H131.474V9.83548H126.189V6.46787Z" fill="black"/>
</svg>
